# xmcd CD database file generated by OrangeCD 6.5
#
# Track frame offsets:
#	150
#	20875
#	45762
#	84090
#	108187
#	123260
#	144120
#	168770
#	188570
#	212260
#	235527
#
# Disc length: 3838 seconds
#
# Revision: 8
# Processed by: cddbd v1.5.2PL0 Copyright (c) Steve Scherf et al.
# Submitted via: OrangeCD 6.5
#
DISCID=6f0efc0b
DTITLE=James Cotton and Billy Branch and Charlie Musselwhite and Sugar Ray Norcia - S
DTITLE=uperharps
DYEAR=1999
DGENRE=Blues
TTITLE0=Sugar Ray Norcia and Billy Branch - I Put My Baby Out
TTITLE1=James Cotton - The Hucklebuck
TTITLE2=Charlie Musselwhite and Sugar Ray Norcia - Blues, Why Do You Worry Me?
TTITLE3=Sugar Ray Norcia and Charlie Musselwhite - Life Will Be Better
TTITLE4=Billy Branch and Sugar Ray Norcia - Mean Little Mama
TTITLE5=James Cotton and Billy Branch - T.D.'s Boogie Woogie
TTITLE6=Charlie Musselwhite and James Cotton - If I Should Have Bad Luck
TTITLE7=Sugar Ray Norcia - I'm Gonna Steal Your Baby
TTITLE8=Billy Branch and Sugar Ray Norcia - Route 66
TTITLE9=Billy Branch and Charlie Musselwhite - You're So Fine
TTITLE10=Charlie Musselwhite and Sugar Ray Norcia and Billy Branch and James Cotton /
TTITLE10=Harp To Harp
EXTD=
EXTT0=
EXTT1=
EXTT2=
EXTT3=
EXTT4=
EXTT5=
EXTT6=
EXTT7=
EXTT8=
EXTT9=
EXTT10=
PLAYORDER=
